<svg width="179" height="58" viewBox="0 0 179 58" fill="none" xmlns="http://www.w3.org/2000/svg">
<rect width="179" height="58" rx="29" fill="#404DB7"/>
<path d="M25.6036 36.26C26.4036 36.26 27.1436 36.08 27.7636 35.86L27.3436 34.16C27.0236 34.3 26.5436 34.42 26.1636 34.42C25.0236 34.42 24.5636 33.78 24.5636 32.42V26.84H27.4236V25H24.5636V21.96H22.6236L22.3636 25L20.6636 25.12V26.84H22.2636V32.4C22.2636 34.72 23.1236 36.26 25.6036 36.26ZM31.4733 30.26L27.9133 36H30.3333L31.6133 33.68C31.9533 32.98 32.2933 32.34 32.6333 31.72H32.7333C33.1333 32.34 33.4933 33.02 33.8733 33.68L35.3133 36H37.8133L34.2733 30.52L37.5733 25H35.1733L34.0133 27.22C33.7133 27.84 33.3933 28.44 33.0933 29.06H33.0133C32.6333 28.44 32.2733 27.84 31.9733 27.22L30.6533 25H28.1733L31.4733 30.26ZM43.0606 36.26C43.8606 36.26 44.6006 36.08 45.2206 35.86L44.8006 34.16C44.4806 34.3 44.0006 34.42 43.6206 34.42C42.4806 34.42 42.0206 33.78 42.0206 32.42V26.84H44.8806V25H42.0206V21.96H40.0806L39.8206 25L38.1206 25.12V26.84H39.7206V32.4C39.7206 34.72 40.5806 36.26 43.0606 36.26ZM55.883 36.26C58.363 36.26 60.623 34.08 60.623 30.32C60.623 26.94 59.043 24.72 56.263 24.72C55.063 24.72 53.923 25.34 52.983 26.16L53.043 24.28V20.06H50.763V36H52.563L52.783 34.86H52.843C53.783 35.76 54.863 36.26 55.883 36.26ZM55.443 34.36C54.743 34.36 53.903 34.1 53.043 33.36V27.98C53.943 27.08 54.803 26.64 55.663 26.64C57.503 26.64 58.243 28.02 58.243 30.36C58.243 32.94 57.043 34.36 55.443 34.36ZM66.0611 36.26C67.5811 36.26 68.6411 35.54 69.6611 34.34H69.7211L69.9011 36H71.7811V25H69.4811V32.64C68.5811 33.78 67.8611 34.28 66.8411 34.28C65.5411 34.28 65.0011 33.56 65.0011 31.64V25H62.7011V31.92C62.7011 34.74 63.7211 36.26 66.0611 36.26ZM78.4434 36.26C79.2434 36.26 79.9834 36.08 80.6034 35.86L80.1834 34.16C79.8634 34.3 79.3834 34.42 79.0034 34.42C77.8634 34.42 77.4034 33.78 77.4034 32.42V26.84H80.2634V25H77.4034V21.96H75.4634L75.2034 25L73.5034 25.12V26.84H75.1034V32.4C75.1034 34.72 75.9634 36.26 78.4434 36.26ZM85.8731 36.26C86.6731 36.26 87.4131 36.08 88.0331 35.86L87.6131 34.16C87.2931 34.3 86.8131 34.42 86.4331 34.42C85.2931 34.42 84.8331 33.78 84.8331 32.42V26.84H87.6931V25H84.8331V21.96H82.8931L82.6331 25L80.9331 25.12V26.84H82.5331V32.4C82.5331 34.72 83.3931 36.26 85.8731 36.26ZM94.0228 36.26C96.7428 36.26 99.2028 34.14 99.2028 30.52C99.2028 26.84 96.7428 24.72 94.0228 24.72C91.3028 24.72 88.8428 26.84 88.8428 30.52C88.8428 34.14 91.3028 36.26 94.0228 36.26ZM94.0228 34.38C92.3228 34.38 91.2228 32.84 91.2228 30.52C91.2228 28.18 92.2628 26.62 94.0228 26.62C95.7828 26.62 96.8428 28.18 96.8428 30.52C96.8428 32.84 95.7628 34.38 94.0228 34.38ZM101.388 25V36H103.668V28.2C104.648 27.22 105.348 26.7 106.368 26.7C107.668 26.7 108.228 27.44 108.228 29.36V36H110.528V29.08C110.528 26.26 109.488 24.72 107.148 24.72C105.648 24.72 104.528 25.54 103.508 26.52H103.448L103.268 25H101.388ZM120.341 36.26C123.061 36.26 124.521 34.76 124.521 32.92C124.521 30.84 122.821 30.16 121.281 29.58C120.081 29.14 118.941 28.78 118.941 27.84C118.941 27.06 119.501 26.48 120.701 26.48C121.641 26.48 122.381 26.88 123.161 27.44L124.241 26.02C123.341 25.32 122.181 24.72 120.661 24.72C118.241 24.72 116.761 26.1 116.761 27.94C116.761 29.82 118.461 30.56 119.901 31.14C121.101 31.62 122.341 32.02 122.341 33.04C122.341 33.9 121.761 34.52 120.401 34.52C119.201 34.52 118.261 34.04 117.281 33.26L116.201 34.74C117.261 35.62 118.821 36.26 120.341 36.26ZM130.15 36.26C130.95 36.26 131.69 36.08 132.31 35.86L131.89 34.16C131.57 34.3 131.09 34.42 130.71 34.42C129.57 34.42 129.11 33.78 129.11 32.42V26.84H131.97V25H129.11V21.96H127.17L126.91 25L125.21 25.12V26.84H126.81V32.4C126.81 34.72 127.67 36.26 130.15 36.26ZM137.38 40.6L142.78 25H140.54L138.78 30.66L137.92 33.76H137.82C137.48 32.74 137.14 31.64 136.82 30.66L134.78 25H132.42L136.78 35.92L135.2 40.6H137.38ZM144.139 20.08V36H146.419V20.08H144.139ZM153.808 36.26C155.248 36.26 156.508 35.8 157.528 35.1L156.728 33.64C155.928 34.18 155.088 34.46 154.108 34.46C152.188 34.46 150.888 33.2 150.708 31.1H157.848C157.908 30.8 157.948 30.42 157.948 29.94C157.948 26.82 156.388 24.72 153.468 24.72C150.888 24.72 148.448 26.92 148.448 30.52C148.448 34.14 150.828 36.26 153.808 36.26ZM155.968 29.52H150.688C150.908 27.6 152.148 26.52 153.508 26.52C155.108 26.52 155.968 27.6 155.968 29.52Z" fill="white"/>
</svg>
